<svg id="Layer_1" data-name="Layer 1" xmlns="http://www.w3.org/2000/svg" viewBox="0 0 24 21"><defs><style>.cls-1{fill:#480063;}.cls-2{fill:none;stroke:#480063;stroke-miterlimit:10;}</style></defs><path class="cls-1" d="M8.13,19.7038a1.31,1.31,0,0,1-.8,1.2,1.28681,1.28681,0,0,1-1.76-.94,1.37413,1.37413,0,0,1,.07-.75,1.23882,1.23882,0,0,1,.48-.58,1.28323,1.28323,0,0,1,1.63.16A1.26089,1.26089,0,0,1,8.13,19.7038Z"/><path class="cls-1" d="M19.61,19.7038a1.31,1.31,0,0,1-.8,1.2,1.28681,1.28681,0,0,1-1.76-.94,1.37414,1.37414,0,0,1,.07-.75,1.23882,1.23882,0,0,1,.48-.58,1.28323,1.28323,0,0,1,1.63.16A1.26088,1.26088,0,0,1,19.61,19.7038Z"/><path class="cls-2" d="M22.59,4.53375a.30722.30722,0,0,0-.1-.15.363.363,0,0,0-.17-.07L5.4,2.68375a.453.453,0,0,1-.22-.08.55131.55131,0,0,1-.17-.17,4.61054,4.61054,0,0,0-.63-.95c-.4-.49-1.15-.47-2.53-.48a.81951.81951,0,0,0-.31.03.7201.7201,0,0,0-.27.15.91412.91412,0,0,0-.2.24.67786.67786,0,0,0,0,.6.7246.7246,0,0,0,.18.25.61421.61421,0,0,0,.26.15.76867.76867,0,0,0,.3.03,6.82237,6.82237,0,0,1,1.35.1c.24.07.44.47.51.82v.02c.01.06.1.53.1.53l2.08,10.93a3.97855,3.97855,0,0,0,.75,1.8401,2.163,2.163,0,0,0,.75.6299,2.00888,2.00888,0,0,0,.96.2101H20.6a.74442.74442,0,0,0,.51-.2001.78948.78948,0,0,0,.24-.5.70972.70972,0,0,0-.05-.29.66859.66859,0,0,0-.16-.25.63316.63316,0,0,0-.24-.16.71732.71732,0,0,0-.29-.06H8.31a.60463.60463,0,0,1-.43-.14,2.32043,2.32043,0,0,1-.6-1.3399l-.23-1.2301v-.0199c0-.01.01-.0101.02-.0101l14.43-2.42a.25877.25877,0,0,0,.17-.09.29786.29786,0,0,0,.08-.18l.83-5.98A.195.195,0,0,0,22.59,4.53375Z"/></svg>