<svg id="Layer_1" data-name="Layer 1" xmlns="http://www.w3.org/2000/svg" viewBox="0 0 20 20"><defs><style>.cls-1{fill:none;stroke:#480063;}</style></defs><path class="cls-1" d="M8.2099.679,8.56345.32544,8.2099.679a.61115.61115,0,0,1,.179.43212V7.77778a.61111.61111,0,0,1-.61111.61111H1.11111A.61113.61113,0,0,1,.679,8.2099l-.35355.35355L.679,8.2099A.61109.61109,0,0,1,.5,7.77778V1.11111A.61111.61111,0,0,1,1.11111.5H7.77778A.61113.61113,0,0,1,8.2099.679Zm10.679,7.7099H12.2222a.61113.61113,0,0,1-.6111-.61111V1.11111A.61116.61116,0,0,1,11.7901.679L11.4365.32544,11.7901.679A.611.611,0,0,1,12.2222.5h6.6667a.61113.61113,0,0,1,.6111.61111V7.77778a.61113.61113,0,0,1-.6111.61111ZM7.77778,19.5H1.11111A.61113.61113,0,0,1,.5,18.8889V12.2222a.611.611,0,0,1,.179-.4321l-.35355-.3536.35355.3536a.61114.61114,0,0,1,.43212-.179H7.77778a.61113.61113,0,0,1,.61111.6111v6.6667a.61113.61113,0,0,1-.61111.6111ZM19.5,15.5556a3.94445,3.94445,0,1,1-3.9444-3.9445A3.94893,3.94893,0,0,1,19.5,15.5556Z"/></svg>