<svg id="Layer_1" data-name="Layer 1" xmlns="http://www.w3.org/2000/svg" viewBox="0 0 20 20"><defs><style>.cls-1{fill:#480063;}</style></defs><path class="cls-1" d="M9.99613,4.08158a3.02544,3.02544,0,0,0-2.3468.75454,1.773,1.773,0,0,0-.401,1.24654,1.16386,1.16386,0,0,1,.00583.11643V7.89548a1.16552,1.16552,0,0,1-.28154.75962.16038.16038,0,0,0-.04087.10148V10.0451a.15684.15684,0,0,0,.06013.1238,1.16564,1.16564,0,0,1,.39073.6133A5.69179,5.69179,0,0,0,8.307,12.6895a1.16579,1.16579,0,0,1,.23612.7034v1.0519a1.97657,1.97657,0,0,1-1.02976,1.7349L5.225,17.4279c.09785.063.19787.1247.2991.1845.03642.0215.076.044.118.0679.20376.116.405.2211.59823.3123l.00537.0024.04724.0214a8.75214,8.75214,0,0,0,2.132.6744l.00278.0005.05821.0105c.24471.0422.47393.0727.70058.0932l.03028.0023.06372.005c.2626.0216.49672.0321.7157.0321.21327,0,.44617-.0103.712-.0317l.065-.0049.0297-.0021c.2274-.0208.4609-.0516.694-.0916l.0062-.001.0403-.0073.0158-.003a8.75036,8.75036,0,0,0,2.1025-.6588l.0454-.0205.0254-.0115.0033-.0016c.1921-.0902.3878-.1915.581-.3003.0498-.0281.096-.0547.1409-.0812.0818-.0482.1593-.0952.2334-.1415l-2.4714-1.2356a1.96467,1.96467,0,0,1-1.0921-1.7668V13.4001a1.16581,1.16581,0,0,1,.2598-.7336c.0558-.0689.1161-.1488.1792-.2375a6.247,6.247,0,0,0,.8002-1.569,1.16554,1.16554,0,0,1,.6013-.6717.15558.15558,0,0,0,.0925-.1428V8.75694a.15837.15837,0,0,0-.0402-.10072,1.16533,1.16533,0,0,1-.2822-.76038V6.19945a1.15178,1.15178,0,0,1,.0058-.116,1.77548,1.77548,0,0,0-.4015-1.24754A3.02428,3.02428,0,0,0,9.99613,4.08158Zm0-4.0734a9.991,9.991,0,0,1,6.722,17.387l.0098.0084-.3326.2777c-.0331.028-.0694.0516-.1032.0788-.1523.124-.309.2425-.4685.3574-.0666.0479-.1324.0963-.1996.1421-.1868.1279-.3791.2482-.5747.3635q-.0795.0468-.1595.0919-.32235.18165-.6583.3402c-.0276.0131-.0556.0251-.0833.0378a9.9008,9.9008,0,0,1-2.3833.747l-.068.0124q-.3909.067-.7917.1043c-.0338.0029-.0676.0047-.1014.0076-.2668.0215-.5354.0356-.80767.0356-.27479,0-.546-.0141-.81421-.0363-.03308-.0029-.06579-.0047-.0985-.0076-.26935-.0244-.53542-.0607-.79859-.1062l-.06687-.012a9.90663,9.90663,0,0,1-2.41756-.7651l-.05161-.0233c-.233-.1097-.46054-.2293-.68336-.3562-.04471-.0254-.08941-.0509-.13376-.077q-.30533-.1806-.59685-.381c-.06-.0414-.11886-.0839-.17774-.1265-.18174-.1312-.36022-.2668-.53251-.4096-.02108-.0175-.044-.032-.06506-.0498l-.32423-.2734.00945-.0083A9.99048,9.99048,0,0,1,9.99613.00818Zm6.147,16.925a9.26841,9.26841,0,1,0-12.33533-.036,2.63739,2.63739,0,0,1,.27334-.173L6.9552,15.1565a.81082.81082,0,0,0,.42237-.7117V13.3929a6.83035,6.83035,0,0,1-1.12426-2.3224,1.32226,1.32226,0,0,1-.48707-1.0254V8.75658a1.32443,1.32443,0,0,1,.32241-.8611V6.19909A2.93211,2.93211,0,0,1,6.77309,4.0676a4.09258,4.09258,0,0,1,3.223-1.15153A4.09147,4.09147,0,0,1,13.2192,4.068a2.93145,2.93145,0,0,1,.6844,2.13149V7.89584a1.32262,1.32262,0,0,1,.3224.8611V10.0455a1.31911,1.31911,0,0,1-.7578,1.1955,7.40647,7.40647,0,0,1-.9509,1.8622c-.0778.1094-.1531.209-.2243.2969V14.475a.80568.80568,0,0,0,.4478.7244l3.0777,1.5386A2.735,2.735,0,0,1,16.1431,16.9332Z"/></svg>