<svg id="Layer_1" data-name="Layer 1" xmlns="http://www.w3.org/2000/svg" viewBox="0 0 21 22"><defs><style>.cls-1{fill:none;stroke:#480063;stroke-miterlimit:10;stroke-width:0.8px;}.cls-2{fill:#480063;}</style></defs><path class="cls-1" d="M10.6101,1h.3124c.1562.11326.3242.2148.4687.33978.328.2851.6522.578.9685.87873a.73253.73253,0,0,0,.7889.17965c.4726-.1484.9452-.2851,1.4177-.42569a.65623.65623,0,0,1,.8905.4296c.1874.46475.3788.9256.5585,1.39426a.71757.71757,0,0,0,.6053.48428q.7323.1113,1.4646.23433a.67657.67657,0,0,1,.6366.81234c-.0391.49209-.0664.98809-.1055,1.48018a.70784.70784,0,0,0,.3359.67955c.4101.27729.8123.56239,1.2185.84359a.66548.66548,0,0,1,.2304.992c-.2343.41789-.4647.84361-.7147,1.25371a.76618.76618,0,0,0,.0039.8592c.2461.4139.4765.8357.7108,1.2575a.66482.66482,0,0,1-.2265.9803c-.3983.2812-.7967.5663-1.2029.8319a.7355.7355,0,0,0-.3593.7225c.0391.4999.0664.9998.1055,1.4997a.66633.66633,0,0,1-.5741.7538c-.4999.082-.9998.164-1.5037.2382a.73724.73724,0,0,0-.6365.4999c-.1719.4491-.3554.8944-.5351,1.3396a.68058.68058,0,0,1-.9608.4569c-.4491-.1328-.8982-.2577-1.3434-.4062a.76754.76754,0,0,0-.8397.1953c-.3203.3047-.6483.6015-.9803.8944-.1289.1132-.2851.1992-.4257.3007h-.3124c-.1484-.1054-.3047-.1953-.4414-.3124-.33192-.289-.66-.5898-.98023-.8944a.75382.75382,0,0,0-.82406-.1836c-.46475.1485-.93341.2812-1.39816.4179a.65613.65613,0,0,1-.89045-.4296c-.19137-.4686-.38274-.9373-.5663-1.4098a.68925.68925,0,0,0-.578-.4609c-.496-.0781-.98809-.1601-1.48409-.2382a.67446.67446,0,0,1-.63269-.8163c.03906-.4843.06249-.9724.10155-1.4606a.71969.71969,0,0,0-.3515-.7069c-.41007-.2734-.81234-.5624-1.21851-.8436a.66147.66147,0,0,1-.22261-.9647c.24214-.4296.48037-.8631.73032-1.2888a.74028.74028,0,0,0,.00391-.8084c-.24995-.4257-.48819-.85922-.73033-1.28882a.65832.65832,0,0,1,.21871-.96466c.39055-.27338.77329-.55458,1.17165-.80843a.79911.79911,0,0,0,.39836-.82016c-.04687-.48037-.0664-.96075-.10545-1.44112a.66808.66808,0,0,1,.578-.74985c.4999-.082.99981-.164,1.50361-.23824a.73164.73164,0,0,0,.63269-.50381c.17965-.46475.36712-.9295.55849-1.39426a.6504.6504,0,0,1,.86311-.41788c.48037.14059.96075.28119,1.43722.4296A.74147.74147,0,0,0,9.169,2.22242c.31634-.30072.6405-.59364.96855-.87874C10.2859,1.2148,10.4539,1.11326,10.6101,1Zm7.8031,10.0098a7.64889,7.64889,0,1,0-7.6508,7.6352A7.66131,7.66131,0,0,0,18.4132,11.0098Z"/><path class="cls-2" d="M8.52063,13.5718c-.45694-.0078-.68737-.4101-.496-.7225a1.29189,1.29189,0,0,1,.207-.2343q2.00352-2.0094,4.01878-4.011a.75605.75605,0,0,1,.4608-.25.545.545,0,0,1,.4101.2851.61214.61214,0,0,1-.0976.52333c-.3633.414-.7733.79282-1.1639,1.18338-.9959.9959-1.98787,1.9918-2.99158,2.9838A2.21448,2.21448,0,0,1,8.52063,13.5718Z"/><path class="cls-2" d="M10.4304,9.57649A1.242,1.242,0,1,1,9.19622,8.33064,1.27521,1.27521,0,0,1,10.4304,9.57649ZM9.17278,9.02191a.545.545,0,0,0-.54286.54677.55313.55313,0,1,0,1.10525-.02734A.53447.53447,0,0,0,9.17278,9.02191Z"/><path class="cls-2" d="M13.1876,12.3298a1.23813,1.23813,0,1,1-1.2342-1.2341A1.26014,1.26014,0,0,1,13.1876,12.3298Zm-.6796.0078a.54746.54746,0,0,0-.5389-.5506.52591.52591,0,0,0-.5663.5467.54807.54807,0,0,0,.5272.5624A.57255.57255,0,0,0,12.508,12.3376Z"/></svg>